<svg xmlns="http://www.w3.org/2000/svg" version="1.1" xmlns:xlink="http://www.w3.org/1999/xlink" xmlns:svgjs="http://svgjs.dev/svgjs" width="1440" height="560" preserveAspectRatio="none" viewBox="0 0 1440 560">
    <g mask="url(&quot;#SvgjsMask1042&quot;)" fill="none">
        <rect width="1440" height="560" x="0" y="0" fill="rgba(255, 255, 255, 1)"></rect>
        <path d="M443.60677372681397 250.14589411890378L465.5689589308723 125.59215245205067 341.0152172640192 103.62996724799231 319.05303205996086 228.18370891484543z" fill="rgba(8, 127, 255, 0.66)" class="triangle-float3"></path>
        <path d="M1126.3070055101439 470.74962875760855L1135.143163474265 533.6221595977213 1225.0338807523735 488.9316572314829z" fill="rgba(8, 127, 255, 0.66)" class="triangle-float1"></path>
        <path d="M1031.8616024938974 443.4019858504213L1115.2796920951546 510.9526228891497 1182.830329133883 427.53453328789266 1099.4122395326258 359.9838962491642z" fill="rgba(8, 127, 255, 0.66)" class="triangle-float1"></path>
        <path d="M196.85398065647945-25.717950378296774L85.46934147033672-66.25864359653356 44.92864825209992 45.12599558960916 156.31328743824267 85.66668880784596z" fill="rgba(8, 127, 255, 0.66)" class="triangle-float3"></path>
        <path d="M910.8452418582416 82.37603323440926L790.0125187352165-5.41407888916514 702.2224066116421 115.41864423385988 823.0551297346672 203.20875635743428z" fill="rgba(8, 127, 255, 0.66)" class="triangle-float3"></path>
        <path d="M629.6760351117384 324.12581601797L734.2741769899602 397.3662234438296 807.5145844158199 292.7680815656079 702.9164425375981 219.52767413974823z" fill="rgba(8, 127, 255, 0.66)" class="triangle-float1"></path>
        <path d="M70.24766693747864 412.2302510687741L-52.66739876664617 469.54648750923235 127.56390337793687 535.1453167728989z" fill="rgba(8, 127, 255, 0.66)" class="triangle-float2"></path>
        <path d="M1353.176,569.421C1375.311,570.451,1395.975,556.336,1405.694,536.422C1414.466,518.45,1406.446,498.434,1396.208,481.256C1386.294,464.622,1372.518,449.232,1353.176,448.303C1332.386,447.304,1312.144,458.39,1302.332,476.746C1292.986,494.231,1298.959,514.515,1308.495,531.897C1318.521,550.172,1332.354,568.452,1353.176,569.421" fill="rgba(8, 127, 255, 0.66)" class="triangle-float3"></path>
        <path d="M722.302,452.333C768.897,450.248,810.383,424.897,833.932,384.636C857.729,343.952,863.163,293.279,839.009,252.806C815.37,213.196,768.418,198.597,722.302,197.586C673.924,196.526,623.011,207.082,596.386,247.489C567.285,291.654,564.218,350.407,591.915,395.466C618.528,438.762,671.532,454.605,722.302,452.333" fill="rgba(8, 127, 255, 0.66)" class="triangle-float2"></path>
        <path d="M188.47258670833773 213.86438083316034L141.81787665468363 182.39538155115665 117.94173275850517 268.11194627263967z" fill="rgba(8, 127, 255, 0.66)" class="triangle-float1"></path>
        <path d="M321.6571110108271 516.1506042227081L425.9799789487401 540.235436036565 409.94579270056903 371.7087182227671z" fill="rgba(8, 127, 255, 0.66)" class="triangle-float2"></path>
        <path d="M894.7320180838395 429.97617018014193L935.425011679624 318.17308914571225 782.9289370494099 389.28317658435736z" fill="rgba(8, 127, 255, 0.66)" class="triangle-float1"></path>
        <path d="M988.7242723168137 525.1929535416529L1086.6550777484515 532.0409425565475 995.5722613317083 427.26214811001506z" fill="rgba(8, 127, 255, 0.66)" class="triangle-float1"></path>
        <path d="M363.242,363.405C404.096,363.858,438.822,335.182,457.709,298.953C475.204,265.394,469.988,226.468,451.986,193.177C432.891,157.865,403.386,124.432,363.242,124.254C322.881,124.075,291.932,156.672,273.127,192.385C255.73,225.424,254.927,263.864,272.334,296.899C291.094,332.501,323.002,362.959,363.242,363.405" fill="rgba(8, 127, 255, 0.66)" class="triangle-float3"></path>
        <path d="M863.2877767528846 229.42938047134786L967.8289854022192 257.4411129047106 891.2995091862474 124.88817182201326z" fill="rgba(8, 127, 255, 0.66)" class="triangle-float2"></path>
        <path d="M1069.3256789727961 227.99401095621187L1123.633060034922 141.08403386070194 1036.723082939412 86.77665279857618 982.4157018772862 173.6866298940861z" fill="rgba(8, 127, 255, 0.66)" class="triangle-float2"></path>
    </g>
    <defs>
        <mask id="SvgjsMask1042">
            <rect width="1440" height="560" fill="#ffffff"></rect>
        </mask>
        <style>
            @keyframes float1 {
                    0%{transform: translate(0, 0)}
                    50%{transform: translate(-10px, 0)}
                    100%{transform: translate(0, 0)}
                }

                .triangle-float1 {
                    animation: float1 5s infinite;
                }

                @keyframes float2 {
                    0%{transform: translate(0, 0)}
                    50%{transform: translate(-5px, -5px)}
                    100%{transform: translate(0, 0)}
                }

                .triangle-float2 {
                    animation: float2 4s infinite;
                }

                @keyframes float3 {
                    0%{transform: translate(0, 0)}
                    50%{transform: translate(0, -10px)}
                    100%{transform: translate(0, 0)}
                }

                .triangle-float3 {
                    animation: float3 6s infinite;
                }
        </style>
    </defs>
</svg>